<?xml version="1.0" encoding="utf-8"?>
<!-- Generator: Adobe Illustrator 23.0.0, SVG Export Plug-In . SVG Version: 6.00 Build 0)  -->
<svg version="1.1" xmlns="http://www.w3.org/2000/svg" xmlns:xlink="http://www.w3.org/1999/xlink" x="0px" y="0px"
	 viewBox="0 0 1080 1080" style="enable-background:new 0 0 1080 1080;" xml:space="preserve">
<style type="text/css">
	.st0{display:none;}
	.st1{display:inline;}
	.st2{display:inline;fill:#2B2A2A;}
	.st3{fill:#F7DBF0;}
	.st4{fill:#BEAEE2;}
	.st5{fill:#845B08;}
	.st6{fill:none;}
	.st7{fill:#FFBCBC;}
	.st8{fill:#F38BA0;}
</style>
<g id="Layer_1" class="st0">
</g>
<g id="Layer_2">
	<path class="st3" d="M784.35,463.41l-40.96,87.69C683.54,678.66,662.66,708.1,525.16,708.1H338.72c0,0,36.28-14.89,91-126.77
		l52.77-112.68C577.14,445.95,713.55,460.56,784.35,463.41z"/>
	<path class="st3" d="M827.14,371.9l-40.51,86.66c-85.41-12.09-202.25-13.12-257.36-77.08c7.59-6.16,16.49-9.59,25.79-9.59H827.14z"
		/>
	<polygon class="st4" points="838.21,371.9 865.59,456.66 799.86,456.66 	"/>
	<path class="st4" d="M425.52,565.47c-0.93,1.95-1.83,3.91-2.73,5.8c-57.2,120.38-95.47,136.08-95.47,136.08
		c-32.6,0-61.97-17.37-82.6-45.16c-18.83-25.34-30.3-59.34-30.3-96.71H425.52z"/>
</g>
</svg>
