<svg xmlns="http://www.w3.org/2000/svg" version="1.1" xmlns:xlink="http://www.w3.org/1999/xlink" xmlns:svgjs="http://svgjs.com/svgjs" width="1440" height="560" preserveAspectRatio="none" viewBox="0 0 1440 560"><g mask="url(&quot;#SvgjsMask1680&quot;)" fill="none"><rect width="1440" height="560" x="0" y="0" fill="url(#SvgjsLinearGradient1681)"></rect><path d="M0 0L166.52 0L0 189.39z" fill="rgba(255, 255, 255, .1)"></path><path d="M0 189.39L166.52 0L305.23 0L0 332.13z" fill="rgba(255, 255, 255, .075)"></path><path d="M0 332.13L305.23 0L547.2 0L0 346.3z" fill="rgba(255, 255, 255, .05)"></path><path d="M0 346.3L547.2 0L730.8100000000001 0L0 452.54z" fill="rgba(255, 255, 255, .025)"></path><path d="M1440 560L815.03 560L1440 433.36z" fill="rgba(0, 0, 0, .1)"></path><path d="M1440 433.36L815.03 560L794.76 560L1440 379.57z" fill="rgba(0, 0, 0, .075)"></path><path d="M1440 379.57L794.76 560L561.87 560L1440 278.68z" fill="rgba(0, 0, 0, .05)"></path><path d="M1440 278.68L561.87 560L310.82 560L1440 177.06z" fill="rgba(0, 0, 0, .025)"></path></g><defs><mask id="SvgjsMask1680"><rect width="1440" height="560" fill="#ffffff"></rect></mask><linearGradient x1="15.28%" y1="-39.29%" x2="84.72%" y2="139.29%" gradientUnits="userSpaceOnUse" id="SvgjsLinearGradient1681"><stop stop-color="#0e2a47" offset="0"></stop><stop stop-color="rgba(163, 121, 73, 0.71)" offset="0.47"></stop></linearGradient></defs></svg>